<svg xmlns="http://www.w3.org/2000/svg" xmlns:xlink="http://www.w3.org/1999/xlink" width="12" height="13.4501953125" viewBox="0 0 12 13.4501953125" fill="none">
<path d="M1.41439 10.0508C1.54605 9.7628 1.71357 9.51627 1.89862 9.33779C2.00037 9.2399 2.10982 9.16088 2.22407 9.10345C2.26712 9.00285 2.34197 8.92039 2.43329 8.86827C2.44632 8.3558 2.6522 7.89139 2.98173 7.54371C1.26803 7.97967 0 9.53157 0 11.3813C0 13.3533 1.44099 13.4503 3.32813 13.4503L3.32821 13.4501C3.53389 13.4501 3.74519 13.449 3.96066 13.449L3.96066 13.449L8.03976 13.449C8.2542 13.449 8.46571 13.4501 8.6716 13.4501C10.5583 13.4501 12 13.3534 12 11.3812C11.9997 9.48577 10.6685 7.90305 8.89044 7.51369C9.20964 7.83727 9.41916 8.26885 9.45994 8.74785C9.89173 8.84459 10.2154 9.23041 10.2154 9.69076C10.2154 10.2239 9.78175 10.6576 9.24855 10.6576C8.71534 10.6576 8.28168 10.224 8.28168 9.69076C8.28168 9.23895 8.59389 8.8594 9.01338 8.75391C8.94781 8.13427 8.51677 7.62244 7.94038 7.4376L3.95922 7.4375C3.34772 7.63369 2.90103 8.19861 2.87966 8.86931C2.96556 8.91935 3.0354 8.9968 3.07793 9.09031C3.39567 9.24032 3.67652 9.55586 3.89127 10.0054C3.92724 10.0812 3.93192 10.1664 3.90566 10.2445C4.0345 10.5763 4.108 10.9386 4.108 11.243C4.108 11.6694 4.108 12.0727 3.64327 12.1763C3.59292 12.2181 3.52995 12.2411 3.46365 12.2411L3.1531 12.2411C2.99735 12.2411 2.87048 12.1143 2.87048 11.9585L2.8708 11.9475C2.87674 11.7975 3.00246 11.6761 3.15309 11.6761L3.46365 11.6761C3.49544 11.6761 3.52661 11.6815 3.55663 11.692C3.5755 11.6866 3.58144 11.6824 3.58144 11.6823C3.61595 11.6209 3.61595 11.3658 3.61595 11.2432C3.61595 10.9958 3.55403 10.6974 3.44561 10.4199C3.38942 10.3878 3.34397 10.3395 3.31593 10.281C3.12766 9.88664 2.87143 9.63197 2.66346 9.63197C2.4508 9.63197 2.18184 9.90727 1.99421 10.3169C1.96356 10.3835 1.90987 10.4381 1.84388 10.4703C1.74589 10.7359 1.692 11.0091 1.692 11.243C1.692 11.3458 1.692 11.6193 1.7313 11.6831C1.73172 11.6831 1.74058 11.6885 1.76518 11.6946C1.79729 11.6823 1.83179 11.6759 1.8664 11.6759L2.17757 11.6759C2.32268 11.6759 2.44371 11.7863 2.4584 11.9299L2.45986 11.9474C2.45986 12.1142 2.3331 12.241 2.17735 12.241L1.86618 12.241C1.80447 12.241 1.74463 12.2204 1.69563 12.1829C1.51789 12.1494 1.39268 12.0709 1.31337 11.9432C1.21726 11.789 1.19974 11.5864 1.19974 11.2428C1.19974 10.9411 1.26928 10.594 1.39583 10.2626C1.37717 10.1916 1.38343 10.1176 1.41439 10.0508Z"   fill="#129090" >
</path>
<path d="M9.42288 3.42127C9.42288 1.53151 7.89099 0 6.00134 0C4.1121 0 2.58008 1.53159 2.58008 3.42127C2.58008 5.31062 4.11196 6.84253 6.00134 6.84253C7.8911 6.84253 9.42288 5.31054 9.42288 3.42127L9.42288 3.42127Z"   fill="#129090" >
</path>
<path d="M9.25097 10.1366C9.00453 10.1366 8.80469 9.93687 8.80469 9.69032C8.80469 9.44388 9.00453 9.24414 9.25097 9.24414C9.49742 9.24414 9.69715 9.44388 9.69715 9.69032C9.69715 9.93686 9.49742 10.1366 9.25097 10.1366L9.25097 10.1366Z"   fill="#129090" >
</path>
</svg>
