<svg xmlns="http://www.w3.org/2000/svg" xmlns:xlink="http://www.w3.org/1999/xlink" width="6.81378173828125" height="11.95001220703125" viewBox="0 0 6.81378173828125 11.95001220703125" fill="none">
<path d="M0.245395 5.38362L0.246395 5.38362L5.39139 0.23962L5.39139 0.23962C5.54926 0.0860147 5.76126 0.000741959 5.98152 0.00224876C6.20178 0.00375557 6.41259 0.0919228 6.56834 0.247674C6.72409 0.403425 6.81225 0.614236 6.81376 0.834496C6.81527 1.05476 6.72999 1.26675 6.57639 1.42462L2.02439 5.97662L6.57539 10.5276C6.72899 10.6855 6.81427 10.8975 6.81276 11.1177C6.81126 11.338 6.72309 11.5488 6.56734 11.7046C6.41159 11.8603 6.20078 11.9485 5.98052 11.95C5.76026 11.9515 5.54826 11.8662 5.39039 11.7126L0.245395 6.56862C0.0882735 6.41147 3.33786e-06 6.19834 3.33786e-06 5.97612C3.33786e-06 5.7539 0.0882735 5.54077 0.245395 5.38362Z"   fill="#129090" >
</path>
</svg>
