<svg xmlns="http://www.w3.org/2000/svg" xmlns:xlink="http://www.w3.org/1999/xlink" width="27" height="27" viewBox="0 0 27 27" fill="none">
<circle cx="13.5" cy="13.5" r="13.5"   fill="#30C084" >
</circle>
<path d="M16.58 9.8L16.52 9.68C16.37 9.36368 16.1956 8.99088 16.09 8.78C15.8344 8.28055 15.3989 8 14.86 8L12.24 8C11.7011 8 11.2756 8.28055 11.02 8.78C10.9089 9.00198 10.7156 9.40259 10.56 9.73L10.53 9.8C10.5133 9.84439 10.4644 9.86 10.42 9.86C9.08111 9.86 8 10.9481 8 12.28L8 15.58C8 16.9119 9.08111 18 10.42 18L16.69 18C18.0233 18 19.11 16.9119 19.11 15.58L19.11 12.28C19.11 10.9481 18.0233 9.86 16.69 9.86C16.64 9.86 16.6022 9.83885 16.58 9.8ZM16.6727 12.4238C16.9505 12.4238 17.1827 12.2013 17.1827 11.9238C17.1827 11.6463 16.9505 11.4238 16.6727 11.4238C16.3949 11.4238 16.1727 11.6463 16.1727 11.9238C16.1727 12.2013 16.3949 12.4238 16.6727 12.4238ZM15.7424 13.7371C15.7424 13.16 15.5135 12.6133 15.1024 12.1971C14.6913 11.7864 14.1357 11.5571 13.5524 11.5571C12.9691 11.5571 12.4191 11.7809 12.0024 12.1971C11.5913 12.6133 11.3724 13.16 11.3724 13.7371C11.3724 14.3198 11.6013 14.8609 12.0124 15.2771C12.4291 15.6878 12.9691 15.9171 13.5524 15.9171C14.1524 15.9171 14.698 15.6711 15.0924 15.2771C15.4868 14.8831 15.7424 14.342 15.7424 13.7371ZM12.2057 13.7396C12.2057 14.1003 12.3401 14.4343 12.5957 14.6896C12.8513 14.9449 13.1946 15.0896 13.5557 15.0896C14.3001 15.0896 14.9057 14.4832 14.9057 13.7396C14.9057 13.3789 14.7713 13.0349 14.5157 12.7796C14.2601 12.5243 13.9168 12.3896 13.5557 12.3896C13.1946 12.3896 12.8568 12.5288 12.5957 12.7896C12.3401 13.0449 12.2057 13.38 12.2057 13.7296L12.2057 13.7396Z" fill-rule="evenodd"  fill="#FFFFFF" >
</path>
</svg>
