<svg xmlns="http://www.w3.org/2000/svg" xmlns:xlink="http://www.w3.org/1999/xlink" width="13.91180419921875" height="12.0040283203125" viewBox="0 0 13.91180419921875 12.0040283203125" fill="none">
<path d="M2.9416 0.19C3.23305 0.101315 3.53205 0.0633684 3.8316 0L4.4616 0C4.4962 0 4.52591 0.02 4.5616 0.02C5.13422 0.0615162 5.66511 0.242305 6.1616 0.52C6.43929 0.675514 6.69737 0.865717 6.9716 1.05C6.9716 1.05 6.98894 1.04156 7.0016 1.03C7.50848 0.580665 8.09841 0.282423 8.7516 0.12C8.98205 0.0624511 9.21541 0.0391529 9.4516 0L10.0816 0C10.1116 0 10.1416 0.02 10.1716 0.02C11.9515 0.202011 13.4225 1.51999 13.8016 3.27C13.8489 3.49008 13.877 3.71765 13.9116 3.94L13.9116 4.48C13.9116 4.51451 13.8816 4.55431 13.8816 4.59C13.8333 5.09924 13.6839 5.57027 13.4616 6.03C13.4085 6.13835 13.3538 6.18 13.2316 6.18L8.4116 6.18C8.21693 6.18 8.07874 6.24639 7.9716 6.41C7.79651 6.67842 7.61243 6.94497 7.4316 7.21C7.37169 7.2975 7.31189 7.37747 7.2416 7.48C7.22312 7.42701 7.2016 7.39996 7.2016 7.37C6.93091 6.42873 6.66231 5.49123 6.3916 4.55C6.3916 4.5235 6.3616 4.49532 6.3616 4.47C6.30861 4.29137 6.19598 4.17495 6.0116 4.16C5.82959 4.14498 5.68911 4.23411 5.6016 4.4C5.30661 4.95877 5.00424 5.52004 4.7116 6.08C4.67245 6.15485 4.63564 6.18 4.5516 6.18L0.641601 6.18C0.557473 6.18 0.509572 6.15375 0.471601 6.08C0.104027 5.37838 -0.0448445 4.63103 0.0116005 3.85C0.13716 2.14382 1.3045 0.690077 2.9416 0.19ZM9.8354 9.7467C9.15452 10.3769 8.47628 11.0065 7.7954 11.6367C7.38521 12.0157 6.93856 12.1057 6.4754 11.8867C6.35904 11.8314 6.25101 11.7442 6.1554 11.6567C4.55515 10.182 2.9545 8.70371 1.3554 7.2267C1.28283 7.15987 1.21569 7.09581 1.1454 7.0267C1.1454 7.01514 1.1554 6.9867 1.1554 6.9867L1.3154 6.9867C2.46979 6.9867 3.62215 6.9967 4.7754 6.9967C5.04618 6.9967 5.21904 6.8998 5.3354 6.6567C5.4932 6.32827 5.66993 6.00807 5.8554 5.6567C5.95564 6.00349 6.04435 6.31866 6.1354 6.6367C6.3105 7.24839 6.49377 7.86375 6.6654 8.4767C6.71839 8.66562 6.81145 8.80793 7.0154 8.8367C7.21699 8.86547 7.35478 8.76031 7.4654 8.5967C7.80522 8.08973 8.14742 7.58784 8.4954 7.0867C8.52763 7.04063 8.60123 6.9967 8.6554 6.9967C9.99859 6.9967 11.342 6.9867 12.6854 6.9867C12.7073 6.9867 12.7312 6.9967 12.7854 6.9967C12.73 7.05315 12.6957 7.09991 12.6554 7.1367C11.7166 8.00779 10.7755 8.87689 9.8354 9.7467Z" fill-rule="evenodd"  fill="#5BAEFC" >
</path>
</svg>
