<svg xmlns="http://www.w3.org/2000/svg" xmlns:xlink="http://www.w3.org/1999/xlink" width="42" height="42" viewBox="0 0 42 42" fill="none">
<g opacity="0.1">
<g opacity="0.4">
<circle cx="21" cy="21" r="21"   fill="#129090" >
</circle>
</g>
</g>
<path d="M17.9238 11C18.1278 11 18.3195 11.0857 18.4638 11.23C18.6081 11.3743 18.6938 11.566 18.6938 11.77L18.6938 14.33C18.6938 14.534 18.6081 14.7357 18.4638 14.88C18.3195 15.0243 18.1278 15.1 17.9238 15.1C17.7198 15.1 17.5281 15.0243 17.3838 14.88C17.2395 14.7357 17.1538 14.534 17.1538 14.33L17.1538 11.77C17.1538 11.566 17.2395 11.3743 17.3838 11.23C17.5281 11.0857 17.7198 11 17.9238 11ZM24.6177 11.23C24.762 11.3743 24.8477 11.566 24.8477 11.77L24.8477 14.33C24.8477 14.534 24.762 14.7357 24.6177 14.88C24.4734 15.0243 24.2817 15.1 24.0777 15.1C23.8737 15.1 23.682 15.0243 23.5377 14.88C23.3934 14.7357 23.3077 14.534 23.3077 14.33L23.3077 11.77C23.3077 11.566 23.3934 11.3743 23.5377 11.23C23.682 11.0857 23.8737 11 24.0777 11C24.2817 11 24.4734 11.0857 24.6177 11.23ZM24.08 16.1256C24.556 16.1256 25.0134 15.9422 25.35 15.6056C25.6866 15.269 25.87 14.8116 25.87 14.3356L25.87 12.2056C26.67 12.2466 27.4333 12.3043 28.1 12.3556C28.7607 12.4008 29.3808 12.6783 29.85 13.1456C30.3192 13.6129 30.6021 14.2351 30.65 14.8956C30.8141 16.793 31 19.4746 31 21.5156C31 23.5566 30.8141 26.2382 30.65 28.1356C30.6019 28.795 30.3194 29.42 29.85 29.8856C29.3806 30.3512 28.7598 30.6328 28.1 30.6756C26.0487 30.8294 23.1641 30.9956 21 30.9956C18.8359 30.9956 15.9413 30.8294 13.89 30.6756C13.2309 30.6307 12.609 30.3508 12.14 29.8856C11.671 29.4204 11.3902 28.7943 11.34 28.1356C11.1862 26.2382 11 23.5464 11 21.5156C11 19.4848 11.1862 16.793 11.34 14.8956C11.39 14.2358 11.6712 13.6225 12.14 13.1556C12.6088 12.6887 13.2301 12.4029 13.89 12.3556C14.5669 12.3043 15.33 12.2056 16.13 12.2056L16.13 14.3356C16.13 14.8116 16.3134 15.269 16.65 15.6056C16.9866 15.9422 17.444 16.1256 17.92 16.1256C18.396 16.1256 18.8534 15.9422 19.19 15.6056C19.5266 15.269 19.72 14.8116 19.72 14.3356L19.72 12.0256L22.28 12.0256L22.28 14.3356C22.28 14.8116 22.4734 15.269 22.81 15.6056C23.1466 15.9422 23.604 16.1256 24.08 16.1256ZM17.6218 20.75C17.4295 20.9423 17.1738 21.05 16.9018 21.05C16.6298 21.05 16.3641 20.9423 16.1718 20.75C15.9795 20.5577 15.8718 20.302 15.8718 20.03C15.8718 19.758 15.9795 19.4923 16.1718 19.3C16.3641 19.1077 16.6298 19 16.9018 19C17.1738 19 17.4295 19.1077 17.6218 19.3C17.8141 19.4923 17.9218 19.758 17.9218 20.03C17.9218 20.302 17.8141 20.5577 17.6218 20.75ZM19.9744 20.03C19.9744 19.758 20.0821 19.4923 20.2744 19.3C20.4667 19.1077 20.7324 19 21.0044 19C21.2764 19 21.5321 19.1077 21.7244 19.3C21.9167 19.4923 22.0244 19.758 22.0244 20.03C22.0244 20.302 21.9167 20.5577 21.7244 20.75C21.5321 20.9423 21.2764 21.05 21.0044 21.05C20.7324 21.05 20.4667 20.9423 20.2744 20.75C20.0821 20.5577 19.9744 20.302 19.9744 20.03ZM26.1269 20.03C26.1269 20.302 26.0192 20.5577 25.8269 20.75C25.6346 20.9423 25.3789 21.05 25.1069 21.05C24.8349 21.05 24.5692 20.9423 24.3769 20.75C24.1846 20.5577 24.0769 20.302 24.0769 20.03C24.0769 19.758 24.1846 19.4923 24.3769 19.3C24.5692 19.1077 24.8349 19 25.1069 19C25.3789 19 25.6346 19.1077 25.8269 19.3C26.0192 19.4923 26.1269 19.758 26.1269 20.03ZM16.9018 23.1025C17.1738 23.1025 17.4295 23.2102 17.6218 23.4025C17.8141 23.5948 17.9218 23.8605 17.9218 24.1325C17.9218 24.4045 17.8141 24.6602 17.6218 24.8525C17.4295 25.0448 17.1738 25.1525 16.9018 25.1525C16.6298 25.1525 16.3641 25.0448 16.1718 24.8525C15.9795 24.6602 15.8718 24.4045 15.8718 24.1325C15.8718 23.8605 15.9795 23.5948 16.1718 23.4025C16.3641 23.2102 16.6298 23.1025 16.9018 23.1025ZM22.0244 24.1325C22.0244 24.4045 21.9167 24.6602 21.7244 24.8525C21.5321 25.0448 21.2764 25.1525 21.0044 25.1525C20.7324 25.1525 20.4667 25.0448 20.2744 24.8525C20.0821 24.6602 19.9744 24.4045 19.9744 24.1325C19.9744 23.8605 20.0821 23.5948 20.2744 23.4025C20.4667 23.2102 20.7324 23.1025 21.0044 23.1025C21.2764 23.1025 21.5321 23.2102 21.7244 23.4025C21.9167 23.5948 22.0244 23.8605 22.0244 24.1325Z" fill-rule="evenodd"  fill="#30C084" >
</path>
</svg>
