<svg xmlns="http://www.w3.org/2000/svg" xmlns:xlink="http://www.w3.org/1999/xlink" width="40" height="40" viewBox="0 0 40 40" fill="none">
<g opacity="0.1">
<rect  x="0" y="0" width="40" height="40" rx="8"    fill="#30C084" >
</rect>
</g>
<g opacity="0">
<path d="M30 10L30 31L9 31L9 10L30 10L30 10Z"   fill="#30C084" >
</path>
</g>
<path d="M24.1549 16.7995C22.7986 16.7557 21.7224 15.6445 21.7224 14.2795C21.7224 12.8882 22.8511 11.7507 24.2511 11.7507C25.6424 11.7507 26.7799 12.8795 26.7799 14.2795C26.7711 15.6445 25.6949 16.7557 24.3386 16.7995C24.2774 16.7907 24.2161 16.7907 24.1549 16.7995L24.1549 16.7995Z"   fill="#30C084" >
</path>
<path d="M23.5687 23.5969C23.9012 22.8794 24.0762 22.0831 24.0849 21.2431C24.0849 20.3681 23.8924 19.5369 23.5249 18.8106C24.8199 18.6356 26.1937 18.8806 27.1824 19.5369C28.5649 20.4469 28.5649 21.9431 27.1912 22.8619C26.2112 23.5181 24.8374 23.7631 23.5687 23.5969L23.5687 23.5969Z"   fill="#30C084" >
</path>
<path d="M14.8187 16.7995C16.175 16.7557 17.2512 15.6445 17.2512 14.2795C17.2512 12.8795 16.1225 11.7507 14.7225 11.7507C13.3312 11.7507 12.2025 12.8795 12.2025 14.2795C12.2025 15.6445 13.2787 16.7557 14.635 16.7995C14.6962 16.7907 14.7575 16.7907 14.8187 16.7995L14.8187 16.7995Z"   fill="#30C084" >
</path>
<path d="M15.2472 23.6233C14.0134 23.7545 12.7272 23.492 11.7822 22.8708C10.3997 21.952 10.3997 20.4558 11.7822 19.537C12.7184 18.907 14.0397 18.6533 15.2822 18.7933C14.9234 19.5283 14.7309 20.3595 14.7309 21.2433C14.7309 22.092 14.9147 22.897 15.2472 23.6233L15.2472 23.6233Z"   fill="#30C084" >
</path>
<path d="M19.3773 23.8862C17.7673 23.8337 16.481 22.5125 16.481 20.885C16.4898 19.2225 17.8285 17.875 19.4998 17.875C21.1623 17.875 22.5098 19.2225 22.5098 20.885C22.501 22.5125 21.2235 23.8337 19.6048 23.8862C19.5348 23.8775 19.456 23.8775 19.3773 23.8862L19.3773 23.8862Z"   fill="#30C084" >
</path>
<path d="M16.9909 28.9659C18.4959 29.9722 20.9634 29.9722 22.4684 28.9659C23.7897 28.0822 23.7897 26.6297 22.4684 25.7547C20.9722 24.7484 18.5047 24.7484 16.9909 25.7547C15.6697 26.6384 15.6697 28.0909 16.9909 28.9659L16.9909 28.9659Z"   fill="#30C084" >
</path>
</svg>
