<svg xmlns="http://www.w3.org/2000/svg" xmlns:xlink="http://www.w3.org/1999/xlink" width="34" height="34" viewBox="0 0 34 34" fill="none">
<rect  x="0" y="0" width="34" height="34" rx="8"    fill="#FBCACB" >
</rect>
<path d="M26 13.67L8 13.67L8 12.33C8 11.5913 8.57768 11 9.29 11L24.71 11C25.4223 11 26 11.5913 26 12.33L26 13.67ZM24.71 23L9.29 23C8.57768 23 8 22.4087 8 21.67L8 15L26 15L26 21.67C26 22.4087 25.4223 23 24.71 23ZM9.9286 21.6634L9.9286 20.3334L11.2186 20.3334L11.2186 21.6634L9.9286 21.6634ZM12.5 21.6634L12.5 20.3334L13.79 20.3334L13.79 21.6634L12.5 21.6634ZM15.0714 21.6634L15.0714 20.3334L16.3614 20.3334L16.3614 21.6634L15.0714 21.6634Z" fill-rule="evenodd"  fill="#FF7678" >
</path>
</svg>
