<svg xmlns="http://www.w3.org/2000/svg" xmlns:xlink="http://www.w3.org/1999/xlink" width="14.610000610351562" height="10.9923095703125" viewBox="0 0 14.610000610351562 10.9923095703125" fill="none">
<path d="M2.6696 5.9223C2.69011 5.71151 3.02156 5.51745 3.4196 5.4823C3.77505 5.44545 4.13054 5.54203 4.4196 5.7523C4.70867 5.96242 4.90498 6.27274 4.9796 6.6223C5.0205 6.77155 5.06981 6.9177 5.1196 7.0523C5.07976 7.38319 4.87186 7.66182 4.5696 7.8023C4.32421 7.90893 4.04718 7.87807 3.8296 7.7223C3.57714 7.5464 3.4296 7.25992 3.4296 6.9523C3.44502 6.79247 3.32916 6.64916 3.1696 6.6323C3.09302 6.6323 3.01945 6.64395 2.9596 6.6923C2.89975 6.74065 2.8496 6.81572 2.8496 6.8923C2.81993 7.40689 3.05841 7.905 3.4796 8.2023C3.70829 8.36878 3.98668 8.4523 4.2696 8.4523C4.45139 8.4523 4.63155 8.41169 4.7996 8.3423C5.08252 8.22417 5.31357 8.02627 5.4696 7.7623C5.71398 8.17472 6.06233 8.51642 6.4796 8.7523C6.49659 8.7523 6.52144 8.7723 6.5396 8.7723C4.91497 9.65923 4.34111 10.5766 4.1596 10.9923L3.2296 10.9923C3.4183 10.4249 3.5196 9.83029 3.5196 9.2323C3.5196 9.08476 3.39714 8.9623 3.2496 8.9623C2.79392 8.9171 2.37186 8.69651 2.0696 8.3523C1.78577 7.98638 1.70251 7.47505 1.8196 6.8223C1.84783 6.66301 1.7389 6.51065 1.5796 6.4823C1.50315 6.46871 1.42337 6.48787 1.3596 6.5323C1.29596 6.57686 1.25319 6.63585 1.2396 6.7123C1.17831 7.03249 1.16344 7.36821 1.1996 7.6923C0.693207 7.51081 -0.084098 6.9761 0.0096 5.4423C0.0623904 4.59628 0.331244 4.00966 0.7996 3.7023C1.54302 3.21643 2.61514 3.52417 3.0396 3.6823C3.19144 3.7381 3.3538 3.66428 3.4096 3.5123C3.4654 3.36032 3.39158 3.18797 3.2396 3.1323C2.56597 2.85878 1.82117 2.7928 1.1096 2.9423C1.32718 2.22605 1.77311 1.60085 2.3796 1.1623C2.89958 0.781644 3.53521 0.581974 4.1796 0.592297C4.08342 0.751973 4.01129 0.930652 3.9696 1.1123C3.93693 1.27041 4.04187 1.42727 4.1996 1.4623C4.21959 1.4623 4.23882 1.4723 4.2596 1.4723C4.39786 1.4723 4.51046 1.36742 4.5396 1.2323C4.72701 0.371649 5.6863 0.118352 6.2396 0.0422973C6.92266 -0.0615908 7.62137 0.0275389 8.2596 0.292297C8.07339 0.417472 7.9093 0.566794 7.7696 0.742297C7.7121 0.801233 7.6896 0.880101 7.6896 0.962297C7.6896 1.0445 7.72543 1.12068 7.7896 1.1723C7.85376 1.22405 7.93819 1.25497 8.0196 1.2423C8.10101 1.22975 8.17412 1.1809 8.2196 1.1123C8.75811 0.444906 9.5959 0.40015 10.0496 0.432297C10.9834 0.49673 11.9583 0.986852 12.3096 1.5723C12.4723 1.85733 12.54 2.1856 12.5096 2.5123C12.4793 2.83914 12.3521 3.14218 12.1396 3.3923C12.0344 3.5141 12.0396 3.70488 12.1596 3.8123C12.2128 3.85947 12.2884 3.8823 12.3596 3.8823C12.4439 3.8823 12.5247 3.8462 12.5796 3.7823C12.8943 3.40761 13.0802 2.94079 13.1096 2.4523C13.6472 2.71678 14.0649 3.17097 14.2996 3.7223C14.6952 4.59786 14.7065 5.59864 14.3296 6.4823C13.7761 7.58001 11.8815 7.7569 10.6696 7.6223C10.7106 7.55787 10.7544 7.49672 10.7896 7.4323C11.1913 6.64937 11.2645 5.74152 10.9996 4.9023C10.6044 3.65235 9.13802 3.5096 8.4296 3.4423C8.30964 3.43067 8.2069 3.42693 8.1396 3.4123C7.9986 3.39113 7.87088 3.31939 7.7896 3.2023C7.6929 3.02707 7.67223 2.81401 7.7296 2.6223C7.75443 2.46901 7.6512 2.32575 7.4996 2.2923C7.348 2.25884 7.20142 2.3528 7.1596 2.5023C7.06251 2.84794 7.11116 3.21677 7.2996 3.5223C7.36193 3.61613 7.43891 3.69552 7.5296 3.7623C7.35227 3.8926 7.23619 4.0855 7.1996 4.3023C7.16301 4.51925 7.21493 4.74104 7.3396 4.9223C7.39057 5.01508 7.48375 5.0723 7.5896 5.0723C7.63991 5.0723 7.69608 5.05778 7.7396 5.0323C7.87995 4.95299 7.92853 4.78291 7.8496 4.6423C7.78792 4.55343 7.76758 4.43553 7.7996 4.3323C7.82887 4.27075 7.94713 4.12011 8.4096 4.0323C9.0477 4.09372 10.1744 4.21878 10.4496 5.0823C10.666 5.77098 10.5968 6.51871 10.2696 7.1623C9.95962 7.73269 9.43619 8.15241 8.8096 8.3223C7.99586 8.56523 7.30115 8.5309 6.7596 8.2323C6.20058 7.92495 5.79841 7.3317 5.5496 6.4623C5.43683 5.9819 5.15065 5.55979 4.7496 5.2723C4.34869 4.98493 3.8507 4.85486 3.3596 4.9023C2.66008 4.96372 2.13939 5.3559 2.0896 5.8623C2.0896 5.93953 2.10073 6.02179 2.1496 6.0823C2.19847 6.14267 2.27224 6.1823 2.3496 6.1823C2.51047 6.19602 2.65117 6.08277 2.6696 5.9223ZM5.1368 3.851C5.16673 3.96207 5.23238 4.06285 5.3168 4.141C5.40122 4.21927 5.50376 4.2697 5.6168 4.291C5.75245 4.33543 5.83784 4.47986 5.8168 4.621C5.79589 4.76213 5.67937 4.871 5.5368 4.871C5.50714 4.871 5.47529 4.851 5.4468 4.851C5.22987 4.80016 5.03283 4.69003 4.8768 4.531C4.72077 4.37183 4.61345 4.16885 4.5668 3.951C4.53413 3.74975 4.55192 3.55061 4.6268 3.361L4.5868 3.361C4.28009 3.37616 3.98102 3.29729 3.7168 3.141C3.52797 3.02012 3.4013 2.83264 3.3668 2.611C3.34811 2.53167 3.36132 2.43869 3.4068 2.371C3.45215 2.30344 3.5263 2.26367 3.6068 2.251C3.6873 2.23832 3.76277 2.26056 3.8268 2.311C3.8907 2.36131 3.9368 2.42971 3.9368 2.511C3.94921 2.57111 3.99401 2.62976 4.0468 2.661C4.15513 2.73418 4.51547 2.88629 5.4668 2.661C6.34501 2.45377 6.23782 1.42591 6.21907 1.24619C6.2177 1.23301 6.2168 1.2244 6.2168 1.221C6.20321 1.14481 6.22237 1.06411 6.2668 1.001C6.31136 0.937749 6.38048 0.893803 6.4568 0.880997C6.61571 0.853816 6.76754 0.962355 6.7968 1.121C6.90213 1.72695 6.78232 2.94992 5.5968 3.231C5.5295 3.24563 5.47123 3.25923 5.4068 3.271C5.22228 3.40638 5.11576 3.62311 5.1368 3.851ZM10.7485 3.4449C10.7178 3.4449 10.6879 3.4249 10.6585 3.4249C10.5046 3.37498 10.4199 3.21922 10.4685 3.0649C10.5055 2.89985 10.4883 2.71895 10.4185 2.5649C10.3488 2.41069 10.2268 2.28619 10.0785 2.2049C9.64818 1.92968 9.09613 2.04242 8.5985 2.5049C8.47906 2.60173 8.30344 2.58754 8.1985 2.4749C8.0937 2.36238 8.0933 2.18727 8.1985 2.0749C9.02688 1.302 9.87036 1.38701 10.3885 1.7149C10.6462 1.86648 10.8544 2.0985 10.9685 2.3749C11.0826 2.65115 11.1042 2.95569 11.0285 3.2449C10.9888 3.36499 10.875 3.4449 10.7485 3.4449ZM12.1104 5.5578C11.8341 5.45639 11.6016 5.26015 11.4504 5.0078C11.2991 4.75532 11.2396 4.45922 11.2804 4.1678C11.3021 4.01438 11.4461 3.90538 11.6004 3.9178C11.7547 3.93021 11.8604 4.06294 11.8604 4.2178C11.8285 4.38245 11.8572 4.55234 11.9404 4.6978C12.0236 4.84338 12.1623 4.95174 12.3204 5.0078C12.5529 5.08647 12.8036 5.09248 13.0404 5.0278C13.2772 4.96311 13.4902 4.83375 13.6504 4.6478C13.7466 4.51764 13.9302 4.49149 14.0604 4.5878C14.1904 4.68398 14.2166 4.86764 14.1204 4.9978C13.777 5.42591 13.2593 5.6578 12.7104 5.6578C12.5085 5.6578 12.2996 5.62797 12.1104 5.5578ZM7.373 7.1414C6.65297 7.03019 6.213 6.45742 6.213 5.6114C6.213 5.5338 6.23838 5.46654 6.293 5.4114C6.34762 5.35625 6.42538 5.3214 6.503 5.3214C6.66465 5.3214 6.803 5.44975 6.803 5.6114C6.803 6.16757 7.03268 6.50412 7.463 6.5714C7.74579 6.60576 8.03564 6.54266 8.283 6.4014C8.53038 6.26 8.71906 6.04247 8.833 5.7814C8.85613 5.70704 8.91361 5.64668 8.983 5.6114C9.05252 5.57611 9.1293 5.56617 9.203 5.5914C9.35655 5.64158 9.44292 5.80786 9.393 5.9614C9.25356 6.31514 9.00727 6.61732 8.693 6.8314C8.37872 7.04545 8.01327 7.1614 7.633 7.1614C7.54675 7.1614 7.45807 7.15551 7.373 7.1414Z" fill-rule="evenodd"  fill="#FE7E80" >
</path>
</svg>
