<svg xmlns="http://www.w3.org/2000/svg" xmlns:xlink="http://www.w3.org/1999/xlink" width="13" height="15.28997802734375" viewBox="0 0 13 15.28997802734375" fill="none">
<path d="M0 6.36C0 2.84246 2.93445 0 6.49 0C10.0556 0 13 2.84246 13 6.36C13 8.13254 12.351 9.77522 11.29 11.17C10.1195 12.7085 8.68394 14.0478 7.06 15.1C6.68833 15.3432 6.34791 15.3615 5.94 15.1C4.30681 14.0478 2.87051 12.7085 1.71 11.17C0.648193 9.77522 0 8.13254 0 6.36ZM8.6444 6.5576C8.6444 7.73598 7.67419 8.6676 6.4944 8.6676C5.31539 8.6676 4.3544 7.73598 4.3544 6.5576C4.3544 5.3884 5.31539 4.4176 6.4944 4.4176C7.67419 4.4176 8.6444 5.3884 8.6444 6.5576Z" fill-rule="evenodd"  fill="#30C084" >
</path>
</svg>
