<svg xmlns="http://www.w3.org/2000/svg" xmlns:xlink="http://www.w3.org/1999/xlink" width="40" height="40" viewBox="0 0 40 40" fill="none">
<g opacity="0.75">
<rect  x="0" y="0" width="40" height="40" rx="8"    fill="#FBCACB" >
</rect>
</g>
<path d="M20.0207 13.26C20.3698 13.26 20.6607 12.9691 20.6607 12.62L20.6607 10.63C20.6607 10.2809 20.3698 10 20.0207 10C19.6716 10 19.3907 10.2809 19.3907 10.63L19.3907 12.62C19.3907 12.9691 19.6716 13.26 20.0207 13.26ZM13.2584 13.3584C13.0118 13.1118 12.6054 13.1118 12.3584 13.3584C12.1118 13.605 12.1118 14.0114 12.3584 14.2584L13.7684 15.6684C14.0154 15.915 14.4218 15.915 14.6684 15.6684C14.915 15.4218 14.915 15.0154 14.6684 14.7684L13.2584 13.3584ZM27.6883 14.2584C27.9349 14.0118 27.9349 13.6054 27.6883 13.3584C27.4417 13.1118 27.0353 13.1118 26.7883 13.3584L25.3783 14.7684C25.1317 15.015 25.1317 15.4214 25.3783 15.6684C25.6249 15.915 26.0313 15.915 26.2783 15.6684L27.6883 14.2584ZM14.5757 21.026L14.5757 26.246L18.2357 26.246L18.2357 23.586C18.2357 23.0931 18.4313 22.6504 18.7557 22.326C19.0801 22.0018 19.5328 21.796 20.0257 21.796C20.5186 21.796 20.9613 22.0016 21.2857 22.326C21.6099 22.6504 21.8157 23.0931 21.8157 23.586L21.8157 26.246L25.4757 26.246L25.4757 21.026C25.4757 18.0289 23.0226 15.576 20.0257 15.576C17.0288 15.576 14.5757 18.0288 14.5757 21.026ZM20.0242 17.4645C19.0467 17.4645 18.1598 17.8688 17.5142 18.5145C16.8685 19.1602 16.4642 20.0471 16.4642 21.0245C16.4642 21.221 16.6279 21.3845 16.8242 21.3845C17.0207 21.3845 17.1742 21.2208 17.1742 21.0245C17.1742 20.2435 17.497 19.5318 18.0142 19.0145C18.5315 18.4972 19.2429 18.1745 20.0242 18.1745C20.2207 18.1745 20.3842 18.0208 20.3842 17.8245C20.3842 17.628 20.2207 17.4645 20.0242 17.4645ZM12.26 21.0206C12.26 20.6715 11.9689 20.3906 11.62 20.3906L9.63 20.3906C9.2809 20.3906 9 20.6715 9 21.0206C9 21.3697 9.28089 21.6606 9.63 21.6606L11.62 21.6606C11.9691 21.6606 12.26 21.3697 12.26 21.0206ZM27.7923 21.0207C27.7923 21.3695 28.073 21.6607 28.4223 21.6607L30.4123 21.6607C30.7614 21.6607 31.0523 21.3698 31.0523 21.0207C31.0523 20.6716 30.7614 20.3907 30.4123 20.3907L28.4223 20.3907C28.0732 20.3907 27.7923 20.6716 27.7923 21.0207ZM18.9458 26.2467L18.9458 23.5867C18.9458 23.2904 19.07 23.0225 19.2658 22.8267C19.4616 22.6309 19.7294 22.5067 20.0258 22.5067C20.3223 22.5067 20.59 22.6307 20.7858 22.8267C20.9816 23.0225 21.1058 23.2903 21.1058 23.5867L21.1058 26.2467L18.9458 26.2467ZM13.0116 26.9551C12.2846 26.9551 11.6916 27.548 11.6916 28.2751L11.6916 29.5551C11.6916 29.7997 11.8867 29.9951 12.1316 29.9951L27.9116 29.9951C28.1562 29.9951 28.3616 29.8 28.3616 29.5551L28.3616 28.2751C28.3616 27.5481 27.7689 26.9551 27.0416 26.9551L13.0116 26.9551Z" fill-rule="evenodd"  fill="#FF7678" >
</path>
</svg>
